<?xml version="1.0" standalone="no"?>
<!DOCTYPE svg PUBLIC "-//W3C//DTD SVG 20010904//EN"
 "http://www.w3.org/TR/2001/REC-SVG-20010904/DTD/svg10.dtd">
<svg version="1.0" xmlns="http://www.w3.org/2000/svg"
 width="225.000000pt" height="225.000000pt" viewBox="0 0 225.000000 225.000000"
 preserveAspectRatio="xMidYMid meet">
<metadata>
Created by potrace 1.16, written by Peter Selinger 2001-2019
</metadata>
<g transform="translate(0.000000,225.000000) scale(0.100000,-0.100000)"
fill="#000000" stroke="none">
<path d="M0 1125 l0 -1125 1125 0 1125 0 0 1125 0 1125 -1125 0 -1125 0 0
-1125z m1299 865 c70 -12 145 -46 178 -82 35 -37 55 -96 64 -186 6 -67 15 -97
49 -167 50 -99 49 -129 -3 -143 -29 -7 -33 -13 -37 -53 -7 -56 -23 -80 -68
-105 -19 -10 -40 -26 -45 -35 -19 -31 2 -86 54 -143 l51 -56 -20 -25 -20 -25
-45 49 -46 49 -23 -34 c-64 -95 -189 -89 -246 11 -7 13 -15 9 -49 -24 -30 -28
-56 -42 -92 -50 -79 -17 -137 0 -216 64 l-40 33 -35 -49 c-40 -55 -51 -59 -70
-25 -11 21 -9 28 14 58 31 41 56 109 56 152 0 27 -8 38 -45 64 -110 77 -161
249 -120 407 35 132 106 224 213 277 l67 33 167 0 c92 1 170 4 174 8 10 10 58
9 133 -3z m-109 -1120 c0 -21 -9 -58 -19 -83 l-19 -45 -67 18 c-63 17 -115 51
-115 75 0 18 115 2 139 -19 21 -19 21 -19 21 8 0 29 40 97 52 90 5 -3 8 -23 8
-44z m-760 -99 c31 -23 34 -65 4 -69 -11 -2 -28 6 -39 18 -21 23 -91 28 -119
7 -26 -19 -33 -99 -12 -132 14 -21 24 -25 64 -25 65 0 102 35 45 42 -20 2 -29
9 -31 25 -4 26 23 36 84 31 34 -3 39 -7 42 -29 5 -47 -23 -98 -65 -116 -53
-22 -146 -13 -179 18 -49 46 -57 153 -17 208 38 51 166 63 223 22z m937 13
c27 -5 57 -48 49 -69 -8 -21 -49 -19 -69 5 -19 22 -100 29 -113 9 -10 -17 8
-28 80 -48 80 -22 109 -47 108 -90 -1 -41 -8 -50 -48 -67 -75 -32 -198 -7
-210 42 -12 45 28 61 61 24 14 -15 31 -20 72 -20 46 0 53 3 53 20 0 14 -11 22
-42 30 -128 34 -148 47 -148 100 0 64 83 89 207 64z m-617 -79 c28 -46 55 -87
61 -90 5 -4 9 30 9 84 l0 91 30 0 31 0 -3 -137 c-3 -136 -3 -138 -27 -141 -49
-7 -65 6 -116 94 l-50 86 -5 -88 -5 -89 -30 0 -30 0 -3 124 c-1 69 0 131 2
138 3 8 22 13 45 13 39 0 40 -1 91 -85z m940 61 c0 -23 -5 -25 -47 -28 l-48
-3 -5 -110 c-4 -95 -7 -110 -23 -113 -38 -8 -47 15 -47 124 l0 104 -45 0 c-41
0 -45 2 -45 25 l0 25 130 0 130 0 0 -24z m288 -96 c4 -146 0 -162 -36 -158
l-27 3 -3 138 -3 138 33 -3 33 -3 3 -115z m-886 46 c10 -7 22 -25 28 -40 10
-28 12 -115 3 -148 -5 -19 -38 -24 -48 -8 -4 7 -12 7 -25 0 -55 -30 -130 4
-130 59 0 39 31 63 90 69 53 5 60 11 34 33 -13 11 -21 10 -49 -5 -55 -30 -85
-6 -45 34 24 24 114 28 142 6z m739 4 c24 -13 49 -61 49 -95 0 -24 -2 -25 -68
-25 -74 0 -88 -5 -71 -27 13 -15 65 -18 74 -3 3 6 17 10 31 10 21 0 25 -4 22
-22 -4 -29 -42 -48 -96 -48 -35 0 -49 6 -73 29 -25 25 -29 37 -29 81 0 44 4
56 29 81 23 23 38 29 71 29 23 0 50 -5 61 -10z"/>
<path d="M1353 1781 c-34 -3 -65 -9 -68 -13 -4 -4 -10 -26 -12 -50 -6 -47 4
-74 62 -173 19 -33 35 -69 35 -81 0 -27 -28 -52 -68 -60 -30 -6 -32 -9 -32
-53 0 -63 -28 -106 -74 -115 -19 -4 -38 -11 -42 -17 -20 -34 38 -146 91 -175
28 -15 35 -15 60 -3 16 8 39 29 51 47 19 27 21 42 17 90 -6 64 -13 53 87 130
28 22 30 28 30 88 l0 64 34 0 c19 0 38 5 41 11 4 6 -11 47 -33 92 -25 50 -43
104 -47 140 -7 56 -31 90 -60 85 -5 0 -38 -4 -72 -7z"/>
<path d="M1135 1760 c-3 -5 -35 -10 -70 -10 -63 0 -63 0 -70 -31 -4 -16 -22
-45 -40 -63 -18 -18 -36 -48 -40 -67 -9 -44 -31 -79 -50 -79 -27 0 -55 -38
-55 -75 0 -40 29 -75 61 -75 15 0 19 -4 15 -16 -3 -9 -6 -22 -6 -29 0 -20 -59
-75 -80 -75 -15 0 -20 -10 -26 -47 -8 -54 -2 -67 55 -110 82 -63 165 -64 236
-2 32 29 34 33 28 79 -7 61 9 89 65 114 48 22 62 49 62 121 0 53 0 54 32 57
44 4 47 27 8 89 -18 31 -37 81 -46 127 -9 42 -21 83 -26 90 -12 14 -44 16 -53
2z"/>
</g>
</svg>
